<svg width="54" height="482" viewBox="0 0 54 482" fill="none" xmlns="http://www.w3.org/2000/svg">
  <defs>
    <pattern id="hatch-ob" patternUnits="userSpaceOnUse" width="8" height="8" patternTransform="rotate(45)">
      <line x1="0" y1="0" x2="0" y2="8" stroke="#888888" stroke-width="2.5"/>
    </pattern>
    <clipPath id="clip-epm-lingual">
      <rect width="54" height="172" transform="matrix(-1 0 0 -1 54 482)"/>
    </clipPath>
    <clipPath id="clip-epm-top">
      <rect width="54" height="94" transform="matrix(-1 0 0 -1 54 288)"/>
    </clipPath>
  </defs>
  <!-- Lingual view -->
  <g clip-path="url(#clip-epm-lingual)">
    <path d="M-10.5516 317.116C-10.5516 283.491 6.48468 256.233 27.5 256.233C48.5153 256.233 65.5515 283.491 65.5515 317.116C65.5515 350.741 48.5153 378 27.5 378C6.48468 378 -10.5516 350.741 -10.5516 317.116Z" fill="white"/>
    <path d="M-10.5516 317.116C-10.5516 283.491 6.48468 256.233 27.5 256.233C48.5153 256.233 65.5515 283.491 65.5515 317.116C65.5515 350.741 48.5153 378 27.5 378C6.48468 378 -10.5516 350.741 -10.5516 317.116Z" fill="url(#hatch-ob)"/>
  </g>
  <!-- Top view -->
  <g clip-path="url(#clip-epm-top)">
    <path d="M27 298C5.46089 298 -12 281.085 -12 260.219C-12 256.418 -11.4176 252.749 -10.3398 249.289C-1.28543 254.48 12.2932 257.781 27.4736 257.781C42.209 257.781 55.4354 254.671 64.4795 249.741C65.4688 253.068 66 256.583 66 260.219C66 281.085 48.5391 298 27 298Z" fill="white"/>
    <path d="M27 298C5.46089 298 -12 281.085 -12 260.219C-12 256.418 -11.4176 252.749 -10.3398 249.289C-1.28543 254.48 12.2932 257.781 27.4736 257.781C42.209 257.781 55.4354 254.671 64.4795 249.741C65.4688 253.068 66 256.583 66 260.219C66 281.085 48.5391 298 27 298Z" fill="url(#hatch-ob)"/>
  </g>
</svg>
