<svg width="54" height="482" viewBox="0 0 54 482" fill="none" xmlns="http://www.w3.org/2000/svg">
<g clip-path="url(#clip0_37_32)">
<path d="M30.2703 206.26C28.892 210.533 26.7303 216.198 27.0582 221.457C27.2842 225.081 27.7857 228.442 27.1615 231.131C25.8815 232.818 24.0553 233.206 22.5785 234.387C20.8063 237.029 14.856 232.813 7.47194 228.541C1.97171 222.575 -1.8468 216.052 0.456013 213.283C2.75883 210.514 31.8948 199.514 30.2703 206.26Z" fill="#D9D9D9"/>
<path d="M29.752 206.26C27.0795 209.586 27.0377 214.541 26.8157 219.917C26.7304 221.982 27.3445 224.36 27.308 226.439C27.2589 229.231 26.6389 231.528 27.308 232.229C27.8453 232.792 31.0939 235.215 32.2799 235.321C36.5627 234.759 42.9501 231.379 46.9207 226.438C51.999 220.12 54.4959 217.651 52.0323 215.069C49.5687 212.486 34.8303 199.942 29.752 206.26Z" fill="#D9D9D9"/>
</g>
<g clip-path="url(#clip1_37_32)">
<rect x="-1" y="152" width="55.1472" height="83.5659" rx="4" fill="#D9D9D9"/>
</g>
<defs>
<clipPath id="clip0_37_32">
<rect width="54" height="94" fill="white" transform="translate(0 194)"/>
</clipPath>
<clipPath id="clip1_37_32">
<rect width="54" height="172" fill="white"/>
</clipPath>
</defs>
</svg>
