<svg width="54" height="482" viewBox="0 0 54 482" fill="none" xmlns="http://www.w3.org/2000/svg">
<g clip-path="url(#clip0_37_32)">
<path d="M29.6038 276.737C28.2734 272.412 27.3837 266.904 27.8152 261.533C28.1127 257.831 28.572 254.915 27.9834 252.187C26.7062 250.498 24.9617 249.621 23.4739 248.453C21.7111 245.8 15.3263 248.471 7.47407 251.636C1.74306 257.851 -1.82655 267.737 0.476262 270.506C2.77908 273.275 31.1403 283.578 29.6038 276.737Z" fill="#D9D9D9"/>
<path d="M30.0156 276.649C27.343 273.323 27.2019 269.226 26.98 263.85C26.8947 261.785 27.5087 259.407 27.4722 257.329C27.4232 254.536 26.8032 252.239 27.4722 251.538C28.0096 250.975 31.6749 248.336 32.861 248.23C37.1438 248.792 45.9891 251.062 49.9598 256.002C55.038 262.321 53.1057 267.27 50.6421 269.852C48.1785 272.435 35.0939 282.967 30.0156 276.649Z" fill="#D9D9D9"/>
</g>
<g clip-path="url(#clip1_37_32)">
<rect x="55" y="330" width="55.1472" height="83.5659" rx="4" transform="rotate(-180 55 330)" fill="#D9D9D9"/>
</g>
<defs>
<clipPath id="clip0_37_32">
<rect width="54" height="94" fill="white" transform="translate(0 194)"/>
</clipPath>
<clipPath id="clip1_37_32">
<rect width="54" height="172" fill="white" transform="matrix(-1 0 0 -1 54 482)"/>
</clipPath>
</defs>
</svg>
