<svg width="54" height="482" viewBox="0 0 54 482" fill="none" xmlns="http://www.w3.org/2000/svg">
<path d="M6.57483 227.786C6.57483 227.786 12.8111 232.167 19.8946 234.411C22.2239 235.149 24.2726 230.928 26.5792 230.866C28.2066 230.822 31.7267 234.887 33.3629 234.411C40.4949 232.333 45.5933 227.786 45.5933 227.786C45.5933 227.786 37.6775 234.823 37.5708 239.989C37.4608 245.324 45.5933 252.657 45.5933 252.657C45.5933 252.657 39.6586 249.911 33.3629 248.442C31.2083 247.939 28.595 251.886 26.5792 251.844C24.6973 251.804 22.3795 248.067 20.3402 248.442C13.1 249.773 6.57483 252.657 6.57483 252.657C6.57483 252.657 14.7996 245.332 14.6885 239.989C14.5808 234.814 6.57483 227.786 6.57483 227.786Z" fill="#D9D9D9"/>
</svg>
