<svg width="54" height="482" viewBox="0 0 54 482" fill="none" xmlns="http://www.w3.org/2000/svg">
<g clip-path="url(#clip0_37_32)">
<path d="M27 184C48.5391 184 66 200.915 66 221.781C66 225.582 65.4176 229.251 64.3398 232.711C55.2854 227.52 41.7068 224.219 26.5264 224.219C11.791 224.219 -1.43539 227.329 -10.4795 232.259C-11.4688 228.932 -12 225.417 -12 221.781C-12 200.915 5.46089 184 27 184Z" fill="#D9D9D9"/>
</g>
<g clip-path="url(#clip1_37_32)">
<path d="M64.5516 164.884C64.5516 198.509 47.5153 225.767 26.5 225.767C5.48474 225.767 -11.5515 198.509 -11.5515 164.884C-11.5515 131.259 5.48474 104 26.5 104C47.5153 104 64.5516 131.259 64.5516 164.884Z" fill="#D9D9D9"/>
</g>
<defs>
<clipPath id="clip0_37_32">
<rect width="54" height="94" fill="white" transform="translate(0 194)"/>
</clipPath>
<clipPath id="clip1_37_32">
<rect width="54" height="172" fill="white"/>
</clipPath>
</defs>
</svg>
