<svg width="54" height="482" viewBox="0 0 54 482" fill="none" xmlns="http://www.w3.org/2000/svg">
<g clip-path="url(#clip0_37_32)">
<path d="M-0.315796 64.1842L4.1842 70.8158L6.4342 67.5L8.6842 64.1842" stroke="black" stroke-width="0.3" stroke-linecap="round"/>
<path d="M8.6842 64.1842L13.1842 70.8158L15.4342 67.5L17.6842 64.1842" stroke="black" stroke-width="0.3" stroke-linecap="round"/>
<path d="M17.6842 64.1842L22.1842 70.8158L24.4342 67.5L26.6842 64.1842" stroke="black" stroke-width="0.3" stroke-linecap="round"/>
<path d="M26.6842 64.1842L31.1842 70.8158L33.4342 67.5L35.6842 64.1842" stroke="black" stroke-width="0.3" stroke-linecap="round"/>
<path d="M35.6842 64.1842L40.1842 70.8158L42.4342 67.5L44.6842 64.1842" stroke="black" stroke-width="0.3" stroke-linecap="round"/>
<path d="M44.6842 64.1842L49.1842 70.8158L51.4342 67.5L53.6842 64.1842" stroke="black" stroke-width="0.3" stroke-linecap="round"/>
</g>
<g clip-path="url(#clip1_37_32)">
<path d="M-0.684204 410.684L3.8158 417.316L6.0658 414L8.3158 410.684" stroke="black" stroke-width="0.3" stroke-linecap="round"/>
<path d="M8.3158 410.684L12.8158 417.316L15.0658 414L17.3158 410.684" stroke="black" stroke-width="0.3" stroke-linecap="round"/>
<path d="M17.3158 410.684L21.8158 417.316L24.0658 414L26.3158 410.684" stroke="black" stroke-width="0.3" stroke-linecap="round"/>
<path d="M26.3158 410.684L30.8158 417.316L33.0658 414L35.3158 410.684" stroke="black" stroke-width="0.3" stroke-linecap="round"/>
<path d="M35.3158 410.684L39.8158 417.316L42.0658 414L44.3158 410.684" stroke="black" stroke-width="0.3" stroke-linecap="round"/>
<path d="M44.3158 410.684L48.8158 417.316L51.0658 414L53.3158 410.684" stroke="black" stroke-width="0.3" stroke-linecap="round"/>
</g>
<defs>
<clipPath id="clip0_37_32">
<rect width="54" height="172" fill="white"/>
</clipPath>
<clipPath id="clip1_37_32">
<rect width="54" height="172" fill="white" transform="matrix(-1 0 0 -1 54 482)"/>
</clipPath>
</defs>
</svg>
