<svg width="54" height="482" viewBox="0 0 54 482" fill="none" xmlns="http://www.w3.org/2000/svg">
<g clip-path="url(#clip0_37_32)">
<path d="M24 297C-4.71881 297 -28 280.318 -28 259.74C-27.9999 251.419 -24.1924 243.737 -17.7588 237.535C-8.43376 245.893 7.46261 251.398 25.5068 251.398C42.5329 251.398 57.6482 246.498 67.1338 238.924C72.7317 244.867 75.9999 252.03 76 259.74C76 280.318 52.7188 297 24 297Z" fill="#D9D9D9"/>
</g>
<g clip-path="url(#clip1_37_32)">
<ellipse cx="27.5" cy="332" rx="33.5" ry="51" transform="rotate(-180 27.5 332)" fill="#D9D9D9"/>
</g>
<defs>
<clipPath id="clip0_37_32">
<rect width="54" height="94" fill="white" transform="matrix(-1 0 0 -1 54 288)"/>
</clipPath>
<clipPath id="clip1_37_32">
<rect width="54" height="172" fill="white" transform="matrix(-1 0 0 -1 54 482)"/>
</clipPath>
</defs>
</svg>
