<svg width="54" height="172" viewBox="0 0 54 172" fill="none" xmlns="http://www.w3.org/2000/svg">
<path d="M19.7512 27.0611C19.7287 26.9162 19.6487 26.7852 19.5301 26.6968C19.4114 26.6084 19.264 26.5699 19.1187 26.5899C18.9734 26.6098 18.8418 26.6867 18.7513 26.8038C18.661 26.9209 18.6192 27.0686 18.6367 27.2143C18.6367 27.2143 18.6367 27.2143 18.6367 27.2143C18.849 28.9956 19.0623 30.8179 19.2731 32.6356C21.15 49.0388 22.9786 65.4781 24.1964 81.8946C24.1964 81.8946 24.1964 81.8946 24.1964 81.8946V81.8946C25.2912 98.097 25.5215 114.423 26.2914 130.667C26.3316 131.539 26.37 132.353 26.4116 133.212C26.4408 133.814 26.4747 134.518 26.5027 135.116L26.5 135C26.5 135.333 26.5 135.667 26.5 136C26.5 136.663 26.7634 137.299 27.2322 137.768C27.7011 138.237 28.337 138.5 29 138.5C29.663 138.5 30.2989 138.237 30.7678 137.768C31.2366 137.299 31.5 136.663 31.5 136C31.5 136 31.5 136 31.5 136C31.5 135.667 31.5 135.333 31.5 135L31.4973 134.884C31.4689 134.277 31.4351 133.574 31.4058 132.969C31.364 132.109 31.3222 131.293 31.2754 130.419C30.379 114.142 28.8761 97.8789 27.1845 81.6275V81.6275C27.1845 81.6275 27.1845 81.6275 27.1845 81.6275C25.3611 65.1686 23.0027 48.8099 20.5719 32.4629C20.3 30.6518 20.0256 28.8377 19.7512 27.0611Z" fill="black"/>
</svg>
