<svg width="54" height="172" viewBox="0 0 54 172" fill="none" xmlns="http://www.w3.org/2000/svg">
<path d="M12 39C11.6858 41.3966 11.4264 43.8067 11.197 46.2209C9.85943 63.32 8.71058 80.5655 13.8604 97.986C15.3291 102.663 19.8205 107.855 26.3967 107.482L26.0183 107.499C26.9057 107.487 27.2841 107.397 27.8428 107.283C35.9694 105.136 37.9625 96.9517 38.3987 91.2643C38.5085 74.0948 34.1351 58.6937 30.024 42.9773C29.3752 40.6514 28.7039 38.3199 28 36C28.3125 38.4037 28.6108 40.8085 28.9055 43.2007C30.6696 59.1371 33.4576 75.6195 32.7477 90.7357C32.2609 95.8227 30.0354 100.737 26.5335 101.428C26.4291 101.451 26.32 101.471 26.2292 101.483C26.1788 101.49 26.1417 101.494 26.1015 101.498C26.0901 101.501 25.9717 101.501 26.1281 101.501L25.7497 101.518C23.3728 101.632 20.4735 99.4675 19.2859 96.014C14.163 80.7332 13.4743 63.1881 12.3361 46.2437C12.2056 43.8302 12.0852 41.4147 12 39Z" fill="black"/>
<path d="M24.001 101.562C24.0009 102.093 24.2128 102.595 24.5997 102.959C24.986 103.322 25.5156 103.516 26.0624 103.499C26.6092 103.482 27.1256 103.255 27.4885 102.868C27.852 102.482 28.0322 101.967 27.999 101.438C27.999 101.438 27.999 101.438 27.999 101.438C27.9317 100.369 27.8613 99.2862 27.7896 98.2013C27.1697 89.1002 26.5461 80.01 25.5526 70.9123C24.3477 60.64 22.9076 50.4253 21.459 40.1941C21.3069 39.1301 21.1514 38.0399 21 37C21.0851 38.0473 21.1744 39.1449 21.2602 40.2163C22.0747 50.5125 22.882 60.8101 23.4474 71.0877C23.8729 80.1336 23.9356 89.2458 23.992 98.3356C23.9969 99.4184 24.0007 100.504 24.001 101.562Z" fill="black"/>
<path d="M18.8968 105.431C18.9727 104.972 19.3549 104.63 19.8188 104.601L31.6093 103.864C32.1169 103.832 32.5673 104.184 32.6586 104.684C33.0849 107.02 34.2984 113.517 35.3858 117.895C36.1655 121.034 38.2652 124.08 39.9986 126.188C40.6533 126.984 39.8561 128.397 38.845 128.197C35.3303 127.504 30.0838 126.656 26.4311 126.906C22.8404 127.151 17.9952 128.657 14.8482 129.76C13.9059 130.09 12.9541 128.921 13.44 128.049C14.7784 125.647 16.4522 122.079 16.895 118.62C17.4579 114.22 18.527 107.667 18.8968 105.431Z" fill="black"/>
</svg>

