<svg width="54" height="172" viewBox="0 0 54 172" fill="none" xmlns="http://www.w3.org/2000/svg">
<path d="M18 50.5C18.0876 52.3433 18.1649 54.1905 18.2397 56.0286C18.594 65.3881 19.0147 74.7749 18.8079 84C18.722 87.5217 19.0764 91.1097 20.3291 94.6013C21.591 97.859 23.8033 102.212 29 102.499C29.7106 102.5 30.4223 102.383 31.0827 102.168C39.3447 97.8813 39.0571 89.5044 39.2471 83C38.8229 72.7731 37.2342 62.8752 35.514 52.9421C35.1918 51.1429 34.8498 49.2779 34.5 47.5C34.585 49.3098 34.6752 51.2025 34.7587 53.0266C35.1796 63.059 35.8549 73.1591 35.7529 83C35.6234 88.9796 34.047 96.6114 29.8491 98.363C29.5648 98.455 29.2846 98.5004 29 98.5015C24.6358 98.195 22.2469 90.0154 22.1921 84C21.8638 74.5125 20.5622 65.2089 18.9955 55.9483C18.6817 54.1329 18.3524 52.3117 18 50.5Z" fill="black"/>
<path d="M20.0526 93C20.0526 93 25.3406 100.614 29.4 100.5C33.1731 100.394 37.9474 94 37.9474 94C37.9474 94 37 105.22 37 109.412C37 112.101 37.8234 115.699 38.4135 117.931C38.6309 118.754 37.7908 119.518 36.9888 119.234C34.9622 118.516 31.7998 117.546 29.4 117.5C26.6749 117.448 23.0252 118.55 20.8528 119.308C20.0784 119.578 19.2678 118.873 19.4386 118.071C19.9123 115.847 20.6 112.147 20.6 109.412C20.6 105.24 20.0526 93 20.0526 93Z" fill="black"/>
</svg>
