<svg width="54" height="172" viewBox="0 0 54 172" fill="none" xmlns="http://www.w3.org/2000/svg">
<path d="M11.5 46C11.23 48.4514 11.0274 51.0418 10.8632 53.5229C10.0727 68.5633 9.80564 83.8092 14.4395 98.9307C16.9911 106.319 20.0493 113.285 23.2848 120.276C23.2851 120.276 23.2852 120.277 23.2853 120.277L25.5721 125.139L28.5114 120.641C33.7969 111.956 37.7309 102.598 38.5428 92.2378C38.9284 78.6973 36.327 66.0724 33.7019 53.3556C33.1658 50.8984 32.5976 48.4071 32 46C32.2026 48.4713 32.3942 51.0154 32.573 53.518C33.3734 66.3544 34.5872 79.4994 33.4572 91.7622C32.2436 100.712 28.2258 109.601 23.4886 117.359L28.7147 117.723C28.7148 117.723 28.7147 117.723 28.7146 117.723C25.5453 110.881 22.3153 103.958 19.5605 97.0693C14.6795 83.6433 13.3162 68.3894 12.0026 53.5153C11.807 51.0468 11.6296 48.4618 11.5 46Z" fill="black"/>
<path d="M23.5034 98.1166C23.5164 98.6472 23.7408 99.1437 24.1374 99.4962C24.5334 99.8488 25.0692 100.029 25.6166 99.9966C26.164 99.9646 26.6753 99.7237 27.0275 99.3274C27.3804 98.9311 27.5454 98.4118 27.4966 97.8834C27.4966 97.8834 27.4966 97.8834 27.4966 97.8834C27.4064 96.898 27.3189 95.9009 27.2331 94.9097C26.5571 86.9433 25.9213 78.9535 25.5998 70.9959C25.2772 61.0371 25.3615 51.0065 25.4608 40.9939C25.4722 39.9993 25.4862 38.9714 25.5 38C25.4196 38.9682 25.339 39.9931 25.261 40.9849C24.4958 50.9775 23.7445 60.9562 23.4001 71.0041C23.189 79.0503 23.2934 87.0791 23.4383 95.1101C23.4579 96.1108 23.4788 97.1107 23.5034 98.1166Z" fill="black"/>
<path d="M19.337 110.792C19.4322 110.328 19.8399 110 20.314 110H32.096C32.6094 110 33.0392 110.385 33.0929 110.896C33.3625 113.459 34.1779 120.961 35 126.015C35.7584 130.677 38.5065 137.37 40.0064 140.796C40.364 141.613 39.558 142.505 38.7078 142.236C35.5137 141.226 29.6497 139.576 25.5 139.603C21.4805 139.629 15.5596 141.26 12.3229 142.252C11.4672 142.515 10.6729 141.607 11.0481 140.794C12.6677 137.286 15.678 130.342 16.5 125.529C17.3452 120.581 18.8431 113.202 19.337 110.792Z" fill="black"/>
</svg>
