<svg width="54" height="172" viewBox="0 0 54 172" fill="none" xmlns="http://www.w3.org/2000/svg">
<path d="M22.5 39C22.6571 40.458 22.8123 41.9464 22.965 43.4329C24.3261 56.9492 25.6058 70.508 26.2412 84.0455C26.7592 97.1797 26.6992 110.391 26.5634 123.545C26.5455 125.041 26.5254 126.533 26.5 127.998C26.4928 128.396 26.6445 128.778 26.9256 129.06C27.2065 129.341 27.5938 129.5 27.9984 129.5C28.403 129.5 28.7906 129.343 29.0721 129.062C29.3539 128.781 29.5064 128.399 29.5 128.002C29.5 128.002 29.5 128.002 29.5 128.002C29.4754 126.523 29.4455 125.032 29.4134 123.531C29.1056 110.349 28.7229 97.1303 27.7588 83.9545C26.663 70.381 24.929 56.884 23.114 43.4151C22.9116 41.9343 22.7067 40.4518 22.5 39Z" fill="black"/>
</svg>
