<svg width="54" height="172" viewBox="0 0 54 172" fill="none" xmlns="http://www.w3.org/2000/svg">
<g clip-path="url(#clip0_37_34)">
<path d="M22.5 -1C22.5628 1.04199 22.6299 3.15314 22.6963 5.23911C23.2602 22.6762 23.8155 40.1411 24.5414 57.5575C25.3003 77.6008 25.6113 97.7144 25.9657 117.83C25.9785 118.597 25.9896 119.322 26.0011 120.065C26.0011 120.065 26.0011 120.065 26.0011 120.065L26 120C25.9774 121.333 25.6667 122.667 25.5 124C25.416 124.663 25.6057 125.299 26.076 125.768C26.5434 126.237 27.2529 126.5 28 126.5C28.7471 126.5 29.4566 126.237 29.924 125.768C30.3943 125.299 30.584 124.663 30.5 124C30.3333 122.667 30.0226 121.333 30 120L29.9989 119.935C29.9989 119.935 29.9989 119.935 29.9989 119.935C29.9619 119.191 29.9252 118.467 29.887 117.699C28.851 97.59 27.8786 77.5145 26.4586 57.4425C25.1634 40.0818 24.0398 22.6357 22.9024 5.22915C22.7674 3.14653 22.6316 1.03871 22.5 -1Z" fill="black"/>
</g>
<defs>
<clipPath id="clip0_37_34">
<rect width="54" height="172" fill="white"/>
</clipPath>
</defs>
</svg>
