<svg width="54" height="172" viewBox="0 0 54 172" fill="none" xmlns="http://www.w3.org/2000/svg">
<path d="M11.5 42.5C11.5639 44.5485 11.654 46.6189 11.7588 48.6957C12.5433 61.9784 13.3524 75.2475 16.6576 88.3977C17.3205 90.7083 17.9582 93.056 18.9853 95.407C19.5163 96.5786 20.1291 97.7806 21.1914 98.8731C22.1988 99.9819 24.0873 100.756 25.6859 100.487C26.3112 100.41 26.9681 100.273 27.6232 100.015C30.8966 98.6947 31.6895 95.3817 32.2817 93.0551C32.8481 90.5627 33.1403 88.1078 33.407 85.666C34.378 71.5097 31.4553 57.9534 28.4907 44.5192C28.017 42.4954 27.5246 40.4823 27 38.5C27.3289 40.5236 27.6344 42.571 27.9306 44.6248C29.7266 58.1912 31.8314 72.0318 30.593 85.334C29.884 89.8159 29.5338 95.9552 26.5243 97.2236C26.1732 97.3623 25.7628 97.4561 25.3141 97.5126C23.839 97.8145 22.5926 96.251 21.6637 94.196C20.7398 92.1682 20.0544 89.8799 19.3424 87.6023C15.8527 75.0848 14.2447 61.7546 12.3263 48.6423C12.0425 46.5843 11.7633 44.5323 11.5 42.5Z" fill="black"/>
<path d="M18 92.5C18 92.5 21.4844 99.2806 25.5 99C29.3566 98.7305 32.5 92 32.5 92C32.5 92 31.9359 102.444 33 109C33.7758 113.78 36.022 120.219 37.2223 123.458C37.5197 124.261 36.7397 125.085 35.9189 124.842C33.4225 124.101 29.1769 123 26 123C22.8499 123 18.8657 124.516 16.5093 125.552C15.7201 125.899 14.8224 125.182 15.0205 124.343C15.8505 120.827 17.4378 113.775 18 109C18.7535 102.601 18 92.5 18 92.5Z" fill="black"/>
</svg>
