<svg width="54" height="172" viewBox="0 0 54 172" fill="none" xmlns="http://www.w3.org/2000/svg">
<path d="M23.3727 97.5253C23.3727 97.5253 26.0939 102.401 29.4606 102.689C32.5898 102.957 36.26 99.0589 36.26 99.0589C36.26 99.0589 35.1926 108.028 34.7074 112.106C34.3935 114.743 34.664 118.358 34.8943 120.585C34.9775 121.39 34.3677 122.122 33.8564 121.827C32.2937 120.927 29.5969 119.525 27.4927 119.226C25.1156 118.888 21.7324 119.708 19.9041 120.235C19.3614 120.391 18.9496 119.609 19.1794 118.861C19.8275 116.751 20.8397 113.178 21.1592 110.493C21.6422 106.435 23.3727 97.5253 23.3727 97.5253Z" fill="black"/>
<path d="M27.7101 40.9949C27.57 40.647 27.43 40.2991 27.2899 39.9512C25.1059 42.0417 24.9681 44.2495 24.1348 46.4008C21.1643 56.194 19.3681 66.3096 18.6286 76.5576C18.308 81.6759 18.2452 86.8745 19.1329 92.0824C19.6056 94.6681 20.2783 97.2992 21.8111 99.76C23.2389 102.235 26.3744 104.242 29.4479 103.985C29.4988 103.983 29.5498 103.981 29.6009 103.978C35.6634 104.086 40.0896 98.1302 40.9955 93.0701C42.2243 87.8663 42.229 82.7024 42.128 77.5824C41.8569 67.3734 40.6562 57.318 40.7249 47.2434C40.7464 45.0013 40.8395 42.7546 41.058 40.5442C40.686 40.4968 40.314 40.4493 39.942 40.4019C39.5938 42.6416 39.3796 44.9204 39.2446 47.1923C38.6679 57.3972 39.497 67.5637 39.5094 77.6159C39.3558 86.8709 39.4037 100.577 29.4373 100.982C29.4015 100.984 29.366 100.986 29.3306 100.987C25.0282 101.385 22.8065 96.1854 21.9907 91.5606C21.106 86.7594 21.0532 81.697 21.2451 76.698C21.7153 66.6706 23.1212 56.5649 25.5577 46.8127C25.8496 45.7053 26.156 44.6328 26.5018 43.6073C26.6964 43.0417 26.8559 42.5972 27.0913 42.0634C27.244 41.6668 27.6677 40.9951 27.7101 40.9949Z" fill="black"/>
</svg>
