<svg width="54" height="172" viewBox="0 0 54 172" fill="none" xmlns="http://www.w3.org/2000/svg">
<path d="M36 53.5C36.0594 53.8351 36.126 54.1929 36.1898 54.5354C36.7676 57.6451 37.4617 60.7224 38.2018 63.7748C38.3091 64.221 38.416 64.6645 38.5204 65.1068C39.1244 67.7041 39.6692 70.3386 40.2682 72.9728C40.3456 73.3173 40.4236 73.6613 40.5 74C40.4897 73.6529 40.4745 73.3001 40.4564 72.947C40.3134 70.2447 40.0289 67.556 39.4796 64.8932C39.3848 64.441 39.2823 63.9912 39.1741 63.541C38.4279 60.464 37.4717 57.4526 36.3729 54.4846C36.2513 54.1581 36.1236 53.8171 36 53.5Z" fill="black"/>
<path d="M12.5063 83.6123C12.5306 83.8764 12.6591 84.1179 12.8666 84.2832C13.0739 84.4485 13.3433 84.5241 13.6123 84.4937C13.8813 84.4633 14.127 84.3295 14.2922 84.1221C14.4576 83.9147 14.5289 83.6506 14.4937 83.3877C14.4937 83.3877 14.4937 83.3877 14.4937 83.3877C14.3882 82.5993 14.2816 81.788 14.1762 80.9821C13.203 73.4823 12.2527 65.973 11.4823 58.4615V58.4615C10.7899 51.4692 10.2278 44.4381 9.68395 37.4252C9.62196 36.618 9.55996 35.8018 9.5 35C9.52667 35.8036 9.55539 36.6217 9.58411 37.4308C9.83937 44.4617 10.1124 51.5071 10.5177 58.5385V58.5385C10.9803 66.0982 11.6221 73.6448 12.2876 81.1897C12.36 82.0008 12.4334 82.8155 12.5063 83.6123Z" fill="black"/>
<path d="M25 93.4291V24.5C25 20.634 35 93.4291 35 93.4291C35 93.4291 36.9359 103.373 38 109.929C38.7758 114.709 41.022 121.148 42.2223 124.388C42.5197 125.19 41.7397 126.014 40.9189 125.771C38.4225 125.03 34.1769 123.929 31 123.929C27.8499 123.929 23.8657 125.445 21.5093 126.481C20.7201 126.828 19.8224 126.111 20.0205 125.272C20.8505 121.756 22.4377 114.704 23 109.929C23.7535 103.53 25 93.4291 25 93.4291Z" fill="black"/>
</svg>
