<svg width="54" height="172" viewBox="0 0 54 172" fill="none" xmlns="http://www.w3.org/2000/svg">
<path d="M16.5003 38C15.8017 40.414 15.17 42.8732 14.5821 45.3197C11.9902 56.6515 9.6978 68.24 10.7999 80.1603C11.4809 85.5567 11.9046 91.031 13.8896 96.4667C14.8946 99.1348 16.6569 101.915 19.3884 103.505C22.1018 105.114 25.1514 105.49 28 105.5C28.2404 105.5 28.477 105.495 28.7099 105.484C31.7465 105.436 35.1618 103.867 36.9029 101.154C38.6918 98.5055 39.2952 95.5312 39.6513 92.7037C40.2948 87.0061 39.8066 81.4487 39.7137 76C39.5862 64.4145 40.1422 52.7144 40.64 41.0514C40.7531 38.5456 40.8719 36.0101 41.0003 33.5C40.6727 35.992 40.3645 38.5126 40.0718 41.0053C38.7433 52.6192 37.5663 64.2572 37.287 76C37.1959 81.5564 37.5134 87.0749 36.8176 92.3419C36.2531 97.581 33.7128 102.579 28.57 102.487C28.385 102.496 28.195 102.5 28 102.5C16.1185 103.874 14.7686 89.9309 13.2001 79.8397C11.7458 68.591 13.3579 56.8603 15.1408 45.4326C15.551 42.9568 15.9961 40.4613 16.5003 38Z" fill="black"/>
<path d="M15 99C15 99 21.9258 103.614 27 103.5C31.7163 103.394 38 99 38 99C38 99 36.5 108.22 36.5 112.412C36.5 115.123 37.5455 118.755 38.2843 120.984C38.5514 121.79 37.7716 122.606 36.9564 122.369C34.4651 121.645 30.1926 120.549 27 120.5C23.3934 120.444 18.4912 121.683 15.857 122.438C15.075 122.661 14.3217 121.918 14.5318 121.132C15.1243 118.916 16 115.172 16 112.412C16 108.24 15 99 15 99Z" fill="black"/>
</svg>
