<svg width="54" height="172" viewBox="0 0 54 172" fill="none" xmlns="http://www.w3.org/2000/svg">
<g clip-path="url(#clip0_37_34)">
<path d="M19.5602 0.449074C19.5448 0.302695 19.4713 0.167662 19.3568 0.073574C19.2423 -0.0205078 19.0963 -0.0659373 18.9498 -0.0526148C18.8032 -0.0392922 18.6678 0.0317218 18.5721 0.144911C18.4765 0.258094 18.4285 0.40418 18.4398 0.550926C18.4398 0.550926 18.4398 0.550926 18.4398 0.550926C18.6114 2.78663 18.7864 5.07229 18.96 7.34596C20.5262 27.9834 22.1121 48.5955 23.3297 69.2303C23.5698 73.4093 23.8005 77.727 23.9514 81.8607V81.8607C24.55 98.0295 25.1393 114.189 25.7734 130.369C25.815 131.427 25.8565 132.476 25.8993 133.541C25.9228 134.116 25.8179 134.65 25.6751 135.216L25.6681 135C25.4535 135.667 25.1817 136.333 25 137C24.7068 138.061 24.8714 139.078 25.6265 139.828C26.3717 140.579 27.646 141 29 141C30.354 141 31.6283 140.579 32.3735 139.828C33.1286 139.078 33.2931 138.061 33 137C33 137 33 137 33 137C32.8183 136.333 32.5465 135.667 32.3319 135L32.3249 134.784C32.1104 134.244 31.9375 133.727 31.8868 133.155C31.7922 132.093 31.6986 131.048 31.6045 129.994C30.1687 113.873 28.7018 97.7699 27.4295 81.6613V81.6613C27.0995 77.4962 26.7057 73.1838 26.3213 69.0059C24.3987 48.3916 22.3655 27.8248 20.262 7.22946C20.0291 4.9606 19.7938 2.68036 19.5602 0.449074Z" fill="black"/>
</g>
<defs>
<clipPath id="clip0_37_34">
<rect width="54" height="172" fill="white"/>
</clipPath>
</defs>
</svg>
