<svg width="54" height="482" viewBox="0 0 54 482" fill="none" xmlns="http://www.w3.org/2000/svg">
<g clip-path="url(#clip0_37_32)">
<path d="M23.7298 275.74C25.1082 271.467 27.2698 265.802 26.9419 260.543C26.716 256.919 26.2144 253.558 26.8387 250.869C28.1186 249.182 29.9448 248.794 31.4216 247.613C33.1938 244.971 39.1441 249.187 46.5282 253.459C52.0284 259.425 55.8469 265.948 53.5441 268.717C51.2413 271.486 22.1053 282.486 23.7298 275.74Z" fill="#D9D9D9"/>
</g>
<g clip-path="url(#clip1_37_32)">
<path d="M27 300C27 297.791 28.7909 296 31 296H96C98.2091 296 100 297.791 100 300V368C100 370.209 98.2091 372 96 372H31C28.7909 372 27 370.209 27 368V300Z" fill="#D9D9D9"/>
</g>
<defs>
<clipPath id="clip0_37_32">
<rect width="54" height="94" fill="white" transform="matrix(-1 0 0 -1 54 288)"/>
</clipPath>
<clipPath id="clip1_37_32">
<rect width="54" height="172" fill="white" transform="matrix(-1 0 0 -1 54 482)"/>
</clipPath>
</defs>
</svg>
