<svg width="54" height="482" viewBox="0 0 54 482" fill="none" xmlns="http://www.w3.org/2000/svg">
<g clip-path="url(#clip0_37_32)">
<path d="M24.3962 205.263C25.7266 209.588 26.6163 215.096 26.1848 220.467C25.8873 224.169 25.428 227.085 26.0166 229.813C27.2938 231.503 29.0383 232.379 30.5261 233.548C32.2889 236.2 38.6737 233.529 46.5259 230.365C52.2569 224.149 55.8266 214.263 53.5237 211.494C51.2209 208.725 22.8597 198.422 24.3962 205.263Z" fill="#D9D9D9"/>
</g>
<g clip-path="url(#clip1_37_32)">
<path d="M27 117C27 114.791 28.7909 113 31 113H96C98.2091 113 100 114.791 100 117V185C100 187.209 98.2091 189 96 189H31C28.7909 189 27 187.209 27 185V117Z" fill="#D9D9D9"/>
</g>
<defs>
<clipPath id="clip0_37_32">
<rect width="54" height="94" fill="white" transform="matrix(-1 0 0 -1 54 288)"/>
</clipPath>
<clipPath id="clip1_37_32">
<rect width="54" height="172" fill="white"/>
</clipPath>
</defs>
</svg>
