<svg width="54" height="482" viewBox="0 0 54 482" fill="none" xmlns="http://www.w3.org/2000/svg">
<g clip-path="url(#clip0_37_32)">
<path d="M24.248 275.74C26.9205 272.415 26.9623 267.459 27.1843 262.083C27.2696 260.018 26.6555 257.64 26.692 255.562C26.7411 252.769 27.3611 250.472 26.692 249.771C26.1547 249.208 22.9061 246.785 21.7201 246.679C17.4373 247.241 11.0499 250.621 7.07927 255.562C2.001 261.88 -0.495878 264.349 1.96773 266.931C4.43134 269.514 19.1697 282.058 24.248 275.74Z" fill="#D9D9D9"/>
</g>
<g clip-path="url(#clip1_37_32)">
<path d="M-46 300C-46 297.791 -44.2091 296 -42 296H23C25.2091 296 27 297.791 27 300V368C27 370.209 25.2091 372 23 372H-42C-44.2091 372 -46 370.209 -46 368V300Z" fill="#D9D9D9"/>
</g>
<defs>
<clipPath id="clip0_37_32">
<rect width="54" height="94" fill="white" transform="matrix(-1 0 0 -1 54 288)"/>
</clipPath>
<clipPath id="clip1_37_32">
<rect width="54" height="172" fill="white" transform="matrix(-1 0 0 -1 54 482)"/>
</clipPath>
</defs>
</svg>
