<svg width="54" height="482" viewBox="0 0 54 482" fill="none" xmlns="http://www.w3.org/2000/svg">
<g clip-path="url(#clip0_37_32)">
<path d="M23.9844 205.352C26.657 208.677 26.7981 212.774 27.02 218.15C27.1053 220.215 26.4913 222.593 26.5278 224.672C26.5768 227.464 27.1968 229.761 26.5278 230.462C25.9904 231.025 22.3251 233.664 21.139 233.77C16.8562 233.208 8.01088 230.938 4.04024 225.998C-1.03803 219.679 0.894263 214.73 3.35788 212.148C5.82149 209.565 18.9061 199.033 23.9844 205.352Z" fill="#D9D9D9"/>
</g>
<g clip-path="url(#clip1_37_32)">
<path d="M-46 117C-46 114.791 -44.2091 113 -42 113H23C25.2091 113 27 114.791 27 117V185C27 187.209 25.2091 189 23 189H-42C-44.2091 189 -46 187.209 -46 185V117Z" fill="#D9D9D9"/>
</g>
<defs>
<clipPath id="clip0_37_32">
<rect width="54" height="94" fill="white" transform="matrix(-1 0 0 -1 54 288)"/>
</clipPath>
<clipPath id="clip1_37_32">
<rect width="54" height="172" fill="white"/>
</clipPath>
</defs>
</svg>
